# Blender 3.3.1
# www.blender.org
mtllib CornellBox.mtl
o cornell_box
v 6.259635 97.092285 4.417341
v 6.323634 97.092285 -6.766661
v -4.732366 97.092285 4.417343
v -4.732368 97.092285 -6.766659
v -4.732368 108.068291 -6.766658
v -4.732366 108.068291 4.417344
v 6.387636 108.068291 4.417342
v 6.387634 108.068291 -6.766660
vn -0.0000 1.0000 -0.0000
vn -0.0000 -1.0000 -0.0000
vn -0.0000 -0.0000 -1.0000
vn -0.9999 0.0117 -0.0057
vn -1.0000 0.0058 -0.0000
vn 1.0000 -0.0000 -0.0000
s 0
g cornell_box_cbox_Material
usemtl cbox_Material
f 1//1 4//1 3//1
f 6//2 8//2 7//2
f 6//3 1//3 3//3
f 1//1 2//1 4//1
f 6//2 5//2 8//2
f 6//3 7//3 1//3
g cornell_box_cbox_red
usemtl cbox_red
f 7//4 2//4 1//4
f 7//5 8//5 2//5
g cornell_box_cbox_green
usemtl cbox_green
f 5//6 3//6 4//6
f 5//6 6//6 3//6
o large_box
v 4.327307 97.106316 -0.519611
v 4.327307 103.706314 -0.519608
v 5.305034 103.706314 2.632225
v 5.305034 97.106316 2.632223
v 1.175473 97.106316 0.458117
v 1.175473 103.706314 0.458119
v 2.153201 103.706314 3.609952
v 2.153201 97.106316 3.609950
vn -0.2963 -0.0000 -0.9551
vn -0.0000 1.0000 -0.0000
vn 0.2963 -0.0000 0.9551
vn -0.0000 -1.0000 -0.0000
vn 0.9551 -0.0000 -0.2963
vn -0.9551 -0.0000 0.2963
s 0
g large_box_box_Material
usemtl box_Material
f 14//7 9//7 13//7
f 15//8 10//8 14//8
f 16//9 11//9 15//9
f 13//10 12//10 16//10
f 10//11 12//11 9//11
f 15//12 13//12 16//12
f 14//7 10//7 9//7
f 15//8 11//8 10//8
f 16//9 12//9 11//9
f 13//10 9//10 12//10
f 10//11 11//11 12//11
f 15//12 14//12 13//12
o Light.001
v -0.537064 107.944885 -2.406425
v -0.537064 107.944885 -0.306425
v 2.062937 107.944885 -2.406425
v 2.062937 107.944885 -0.306425
vn -0.0000 -1.0000 -0.0000
s 0
g Light.001_Emitter
usemtl Emitter
f 19//13 18//13 17//13
f 19//13 20//13 18//13
o small_box
v -2.675302 97.141991 -2.027363
v -2.675302 100.441994 -2.027363
v 0.486900 100.441994 -1.083707
v 0.486900 97.141991 -1.083708
v -3.618957 97.141991 1.134839
v -3.618957 100.441994 1.134839
v -0.456755 100.441994 2.078495
v -0.456755 97.141991 2.078494
vn -0.9582 -0.0000 -0.2860
vn -0.0000 1.0000 -0.0000
vn 0.9582 -0.0000 0.2860
vn -0.0000 -1.0000 -0.0000
vn 0.2860 -0.0000 -0.9582
vn -0.2860 -0.0000 0.9582
s 0
g small_box_box_Material
usemtl box_Material
f 26//14 21//14 25//14
f 27//15 22//15 26//15
f 28//16 23//16 27//16
f 25//17 24//17 28//17
f 22//18 24//18 21//18
f 27//19 25//19 28//19
f 26//14 22//14 21//14
f 27//15 23//15 22//15
f 28//16 24//16 23//16
f 25//17 21//17 24//17
f 22//18 23//18 24//18
f 27//19 26//19 25//19
